HIERARCHY
ROOT hip
{
	OFFSET 0.000000 0.000000 0.000000 
	CHANNELS 6 Xposition Yposition Zposition Xrotation Zrotation Yrotation
	JOINT abdomen
	{
		OFFSET 0.000000 3.402643 0.000000 
		CHANNELS 3 Xrotation Zrotation Yrotation
		JOINT chest
		{
			OFFSET 0.000000 8.438565 -0.680529 
			CHANNELS 3 Xrotation Zrotation Yrotation
			JOINT neck
			{
				OFFSET 0.000000 10.207942 -0.272212 
				CHANNELS 3 Xrotation Zrotation Yrotation
				JOINT head
				{
					OFFSET 0.000000 3.130431 0.000000 
					CHANNELS 3 Xrotation Zrotation Yrotation
					End Site
					{
						OFFSET 0.000000 3.130435 0.000000 
					}
				}
			}
			JOINT lCollar
			{
				OFFSET 3.470700 6.669187 -0.816635 
				CHANNELS 3 Yrotation Zrotation Xrotation
				JOINT lShldr
				{
					OFFSET 3.198488 0.000000 0.000000 
					CHANNELS 3 Zrotation Yrotation Xrotation
					JOINT lForeArm
					{
						OFFSET 10.139888 0.000000 0.000000 
						CHANNELS 3 Yrotation Zrotation Xrotation
						JOINT lHand
						{
							OFFSET 8.370511 0.000000 0.000000 
							CHANNELS 3 Zrotation Yrotation Xrotation
							End Site
							{
								OFFSET 4.083176 0.000000 0.000000 
							}
						}
					}
				}
			}
			JOINT rCollar
			{
				OFFSET -3.470700 6.669187 -0.816635 
				CHANNELS 3 Yrotation Zrotation Xrotation
				JOINT rShldr
				{
					OFFSET -3.198488 0.000000 0.000000 
					CHANNELS 3 Zrotation Yrotation Xrotation
					JOINT rForeArm
					{
						OFFSET -10.139888 0.000000 0.000000 
						CHANNELS 3 Yrotation Zrotation Xrotation
						JOINT rHand
						{
							OFFSET -8.370511 0.000000 0.000000 
							CHANNELS 3 Zrotation Yrotation Xrotation
							End Site
							{
								OFFSET -4.083176 0.000000 0.000000 
							}
						}
					}
				}
			}
		}
	}
	JOINT lThigh
	{
		OFFSET 5.308129 -1.633274 1.361059 
		CHANNELS 3 Xrotation Zrotation Yrotation
		JOINT lShin
		{
			OFFSET -2.041588 -20.007561 0.000000 
			CHANNELS 3 Xrotation Zrotation Yrotation
			JOINT lFoot
			{
				OFFSET 0.000000 -19.190928 -1.224953 
				CHANNELS 3 Xrotation Yrotation Zrotation
				End Site
				{
					OFFSET 0.000000 -2.449906 4.627600 
				}
			}
		}
	}
	JOINT rThigh
	{
		OFFSET -5.308129 -1.633274 1.361059 
		CHANNELS 3 Xrotation Zrotation Yrotation
		JOINT rShin
		{
			OFFSET 2.041588 -20.007561 0.000000 
			CHANNELS 3 Xrotation Zrotation Yrotation
			JOINT rFoot
			{
				OFFSET 0.000000 -19.190928 -1.224953 
				CHANNELS 3 Xrotation Yrotation Zrotation
				End Site
				{
					OFFSET 0.000000 -2.449906 4.627600 
				}
			}
		}
	}
}
MOTION
Frames: 6
Frame Time: 0.033333
-0.427307 43.263947 68.183479 -7.392578 5.966797 -150.653275 13.173827 6.621094 -2.246094 -15.976563 -3.427734 -4.414062 -4.511719 -2.158203 -11.377321 18.007811 9.892578 -11.669924 -5.615234 3.613281 -0.010381 -86.855469 -27.021482 62.705078 -52.539063 -2.978516 -28.378399 10.419922 -3.779296 -0.742830 12.597656 7.382813 -0.391880 71.748047 13.906251 -3.855073 73.417969 3.486328 -45.449810 -9.033203 -8.496094 0.927734 -10.501391 11.516935 -1.165381 40.866161 -0.930138 -2.824636 -35.251339 21.520844 9.907440 -43.678173 -19.821983 -10.164281 53.159592 -0.009733 3.010916 -14.183469 -7.424860 2.793516 
-0.707088 43.106319 67.694107 -6.865235 6.328125 -150.107422 11.425781 6.572266 -2.060547 -16.328125 -2.900391 -4.052734 -3.261719 -2.187500 -11.728962 18.896482 9.355469 -12.158203 -5.273437 2.900391 0.087397 -86.162109 -28.115234 65.683594 -51.767578 -2.783203 -23.856949 10.761719 -2.246094 -0.410156 12.597656 7.724610 -0.470063 71.787109 12.246094 -6.716913 73.056641 3.515625 -51.250000 -7.041016 -8.203126 0.693359 -9.461563 12.078692 -2.366422 40.866161 -0.930139 -2.824635 -35.916855 22.169746 10.610809 -42.514137 -20.376980 -11.704384 54.232018 -0.205079 2.975235 -15.462823 -6.385371 3.062635 
-1.025536 42.858437 66.983078 -5.634766 6.494247 -149.237595 9.482422 6.191407 -2.011719 -17.031250 -2.021484 -3.867532 -1.113281 -2.587899 -12.217198 20.126951 9.003906 -12.802733 -4.218750 2.900391 0.029297 -85.302734 -30.537109 69.536049 -52.636719 -2.744141 -25.244143 10.937499 0.332031 -0.068359 12.597656 7.548829 -0.430971 71.904297 10.595703 -9.461093 73.359375 3.632813 -56.132809 -7.578125 -8.730469 0.662580 -7.681654 12.894940 -2.668007 41.227486 -0.754336 -2.586982 -36.415966 21.492243 10.680910 -40.385742 -21.060394 -13.832424 55.633732 -0.380957 2.756341 -17.536926 -5.188781 3.261951 
-1.357652 42.457233 66.093124 -3.691406 6.503906 -148.162949 7.890625 5.634766 -1.991229 -18.085936 -0.966797 -3.847821 1.171875 -3.310547 -12.324783 21.894533 9.160157 -13.260163 -2.988281 2.900391 -0.039557 -83.535156 -34.912109 71.849884 -54.941410 -2.910156 -26.162107 12.363282 6.259766 1.085051 12.089844 7.177734 -0.460205 72.236328 9.951173 -11.679688 74.443359 3.808594 -61.572262 -9.208984 -8.310546 0.917969 -5.076086 14.136891 -3.065583 41.577972 -0.738240 -2.627924 -37.709003 21.258364 11.221788 -37.748234 -21.400822 -15.994842 58.071163 -0.685047 3.214561 -20.161268 -4.333146 3.068116 
-1.664402 41.841518 65.094925 -1.416016 5.976563 -147.489227 6.816406 4.912109 -2.020648 -18.271484 -0.097656 -3.671875 2.382812 -3.798828 -11.923829 24.023438 9.677734 -13.164063 -1.591797 3.076172 0.078125 -79.648438 -43.027348 71.340988 -58.232426 -2.880859 -24.541016 11.435548 11.611327 1.906263 11.035155 6.455078 -0.361328 72.841797 11.816406 -14.082032 77.070313 3.759766 -66.494148 -10.283201 -8.095703 1.024017 -1.757227 15.738851 -2.643116 42.269867 -0.578873 -2.943996 -39.787518 21.027729 12.088157 -35.971638 -21.557463 -16.202787 61.934624 -0.712623 3.369229 -21.303539 -3.665653 3.407134 
-1.931869 40.994789 64.041687 1.054688 4.912094 -147.469788 6.796875 3.847657 -2.157548 -18.271484 0.078125 -3.671874 3.212890 -3.554688 -11.240233 25.263672 10.009766 -12.586194 -0.019531 3.955078 0.166016 -72.304688 -54.843750 68.144531 -60.605469 -2.392578 -18.212889 8.857422 9.013672 0.966797 10.166015 5.742187 -0.312500 73.867188 16.064453 -15.527344 81.005859 3.701171 -69.042969 -10.693359 -4.628906 0.634766 1.230415 16.938822 -1.814728 45.096581 -0.586959 -2.911510 -41.141834 20.988121 12.895344 -36.215012 -22.152540 -14.487850 68.261124 -1.064598 3.242355 -19.610165 -2.400571 4.014207 
